<svg width="19" height="30" viewBox="0 0 19 30" fill="none" xmlns="http://www.w3.org/2000/svg">
<g clip-path="url(#clip0_14_79)">
<g opacity="0.54">
<path d="M4.18377 25.6026H5.4268C5.84864 25.6026 6.21696 25.6899 6.53176 25.8644C6.84612 26.0389 7.08807 26.2817 7.25671 26.5925C7.42536 26.9032 7.50991 27.2598 7.50991 27.6628C7.50991 28.0657 7.42536 28.4224 7.25671 28.7331C7.08807 29.0439 6.84612 29.2863 6.53176 29.4608C6.21696 29.6353 5.84909 29.7225 5.4268 29.7225H4.18332L4.18377 25.6026ZM5.4268 29.2566C5.91385 29.2566 6.30061 29.1167 6.58618 28.8366C6.87175 28.5564 7.01476 28.1651 7.01476 27.6628C7.01476 27.1605 6.87175 26.7692 6.58618 26.489C6.30016 26.2088 5.91385 26.069 5.4268 26.069H4.66722V29.2566H5.4268Z" fill="black"/>
<path d="M8.26318 29.6879C8.09453 29.6033 7.96411 29.4873 7.87192 29.3398C7.77973 29.1923 7.73386 29.0241 7.73386 28.8361C7.73386 28.5254 7.85078 28.283 8.08464 28.1085C8.31849 27.934 8.61396 27.8467 8.97059 27.8467C9.14688 27.8467 9.31103 27.8661 9.46258 27.9043C9.61414 27.9425 9.73017 27.987 9.81067 28.0365V27.858C9.81067 27.6394 9.73377 27.464 9.58041 27.3314C9.42706 27.1991 9.23323 27.133 8.99937 27.133C8.83432 27.133 8.68277 27.1686 8.5447 27.2396C8.40664 27.3107 8.29736 27.4092 8.21686 27.536L7.84854 27.2598C7.96366 27.0836 8.12197 26.9455 8.32344 26.8457C8.52492 26.7458 8.74843 26.6959 8.99398 26.6959C9.39288 26.6959 9.70633 26.8002 9.93479 27.0094C10.1628 27.2185 10.277 27.5031 10.277 27.8638V29.7225H9.81112V29.3025H9.78818C9.70363 29.4446 9.57726 29.5651 9.40862 29.665C9.23997 29.7648 9.04974 29.8147 8.83882 29.8147C8.62385 29.8147 8.43182 29.7724 8.26318 29.6879ZM9.34476 29.2566C9.48642 29.1721 9.59975 29.0592 9.6843 28.9171C9.76884 28.7754 9.81067 28.6198 9.81067 28.4512C9.71848 28.39 9.6056 28.3401 9.47113 28.3014C9.33666 28.2632 9.195 28.2438 9.04524 28.2438C8.77676 28.2438 8.57439 28.2996 8.43812 28.4107C8.30185 28.5218 8.23395 28.6657 8.23395 28.8424C8.23395 29.0034 8.29511 29.1338 8.41788 29.2337C8.54066 29.3335 8.69581 29.3834 8.88379 29.3834C9.04929 29.383 9.20309 29.3407 9.34476 29.2566Z" fill="black"/>
<path d="M10.7933 26.834H11.2592V27.2999H11.2822C11.3514 27.1272 11.4684 26.9932 11.6329 26.8969C11.798 26.8011 11.9783 26.753 12.174 26.753C12.2585 26.753 12.3291 26.7589 12.3867 26.7701V27.2706C12.3215 27.2553 12.2333 27.2477 12.1218 27.2477C11.8722 27.2477 11.6703 27.3305 11.5147 27.4951C11.3595 27.6601 11.2817 27.8746 11.2817 28.1395V29.7679H10.7924V26.834H10.7933ZM13.8303 29.7558C13.7286 29.7167 13.6432 29.6641 13.5744 29.5975C13.4975 29.5233 13.4399 29.4374 13.4017 29.3398C13.3635 29.2422 13.3441 29.123 13.3441 28.9823V27.2306H12.8319V26.7876H13.3441V25.9593H13.8334V26.7876H14.5471V27.2306H13.8334V28.8653C13.8334 29.0299 13.864 29.1518 13.9256 29.2301C13.9985 29.3164 14.1042 29.3596 14.2422 29.3596C14.3533 29.3596 14.4608 29.3272 14.5642 29.262V29.7396C14.5067 29.7666 14.4482 29.7855 14.3888 29.7972C14.3295 29.8089 14.2535 29.8143 14.1617 29.8143C14.0421 29.8147 13.9319 29.7949 13.8303 29.7558Z" fill="black"/>
</g>
<path d="M3.85637 14.7886L0.718669 11.6509C0.346749 11.2687 0.115143 10.7294 0.115143 10.2028C0.115143 9.95907 0.253207 9.57771 0.356643 9.35825L3.25285 3.32434L3.85637 14.7886Z" fill="#01579B"/>
<path d="M14.597 3.92742L11.4593 0.789711C11.185 0.514481 10.6148 0.186185 10.1318 0.186185C9.71712 0.186185 9.30968 0.268934 9.04569 0.427685L3.25238 3.32389L14.597 3.92742Z" fill="#40C4FF"/>
<path d="M7.59759 18.5294H15.2001V15.2712L9.52869 13.4611L4.33936 15.2712L7.59759 18.5294Z" fill="#40C4FF"/>
<path d="M3.2533 13.099C3.2533 14.0668 3.37472 14.3047 3.85682 14.7886L4.33937 15.2712H15.2006L9.89073 9.23727L3.2533 3.32389V13.099Z" fill="#29B6F6"/>
<path d="M12.9075 3.32389H3.2533L15.2006 15.2712H18.4588V7.78917L14.5971 3.92741C14.0547 3.3828 13.5726 3.32389 12.9075 3.32389Z" fill="#01579B"/>
<path opacity="0.2" d="M3.97735 14.9092C3.4948 14.4244 3.37382 13.9472 3.37382 13.099V3.44441L3.2533 3.32389V13.099C3.2533 13.9472 3.2533 14.1824 3.97735 14.9092Z" fill="white"/>
<path opacity="0.2" d="M18.3383 7.66819V15.1507H15.0792L15.2001 15.2712H18.4588V7.78917L18.3383 7.66819Z" fill="#263238"/>
<path opacity="0.2" d="M14.5971 3.92741C13.9989 3.32929 13.5083 3.32389 12.7869 3.32389H3.2533L3.37382 3.44441H12.7869C13.1472 3.44441 14.0556 3.38415 14.5971 3.92741Z" fill="white"/>
<path opacity="0.2" d="M18.3383 7.6682L14.5971 3.92697L11.4594 0.789261C11.185 0.514031 10.6148 0.185735 10.1318 0.185735C9.71713 0.185735 9.30968 0.268483 9.0457 0.427235L3.25239 3.32344L0.356185 9.35735C0.252749 9.57681 0.114685 9.95818 0.114685 10.2019C0.114685 10.729 0.346291 11.2678 0.718211 11.65L3.60992 14.5206C3.67917 14.6051 3.76012 14.6915 3.85592 14.7877L3.97644 14.9083L4.33847 15.2703L7.47617 18.408L7.5967 18.5285H15.0787H15.1992V15.2703H18.4575V15.2617V7.78917L18.3383 7.6682Z" fill="url(#paint0_radial_14_79)"/>
</g>
<defs>
<radialGradient id="paint0_radial_14_79" cx="0" cy="0" r="1" gradientUnits="userSpaceOnUse" gradientTransform="translate(9.2863 9.35698) scale(9.17139)">
<stop stop-color="white" stop-opacity="0.1"/>
<stop offset="1" stop-color="white" stop-opacity="0"/>
</radialGradient>
<clipPath id="clip0_14_79">
<rect width="18.5735" height="30" fill="white"/>
</clipPath>
</defs>
</svg>
