<svg width="30" height="30" viewBox="0 0 30 30" fill="none" xmlns="http://www.w3.org/2000/svg">
<g clip-path="url(#clip0_14_52)">
<path d="M30 0H0V30H30V0Z" fill="#F7DF1E"/>
<path d="M7.89023 25.0687L10.1836 23.6795C10.6271 24.4688 11.0303 25.1262 11.9918 25.1262C12.9205 25.1262 13.5041 24.7646 13.5041 23.3508V13.7754H16.323V23.4C16.323 26.318 14.6133 27.6492 12.1148 27.6492C9.86308 27.6492 8.55644 26.482 7.89023 25.0687Z" fill="black"/>
<path d="M17.8605 24.7646L20.1539 23.4334C20.7621 24.4195 21.5432 25.1432 22.9318 25.1432C24.099 25.1432 24.8467 24.5596 24.8467 23.7539C24.8467 22.7842 24.082 22.4473 22.7918 21.8801L22.0851 21.576C20.0549 20.7129 18.699 19.6195 18.699 17.3268C18.699 15.2145 20.3098 13.6037 22.8252 13.6037C24.617 13.6037 25.9072 14.2283 26.8359 15.8561L24.6416 17.2617C24.1564 16.3986 23.6391 16.0535 22.8334 16.0535C22.0113 16.0535 21.4857 16.5797 21.4857 17.2617C21.4857 18.1084 22.0119 18.4535 23.2201 18.9715L23.9267 19.2756C26.3267 20.3027 27.6744 21.3469 27.6744 23.7059C27.6744 26.2453 25.6769 27.6346 23.0057 27.6346C20.3754 27.6492 18.682 26.4 17.8605 24.7646Z" fill="black"/>
</g>
<defs>
<clipPath id="clip0_14_52">
<rect width="30" height="30" fill="white"/>
</clipPath>
</defs>
</svg>
