<svg width="30" height="30" viewBox="0 0 30 30" fill="none" xmlns="http://www.w3.org/2000/svg">
<circle cx="15" cy="15" r="15" fill="white"/>
<path d="M8.68412 11.1274H13.1957V11.5015H9.09768V14.3177H12.9513V14.6919H9.09768V17.7837H13.2426V18.1579H8.68412V11.1274ZM13.5998 11.1274H14.0792L16.2033 14.2192L18.3745 11.1274L21.3277 7.2L16.4759 14.5442L18.976 18.1579H18.4779L16.2033 14.8691L13.9194 18.1579H13.4306L15.9496 14.5442L13.5998 11.1274ZM19.1546 11.5015V11.1274H24.2959V11.5015H21.9273V18.1579H21.5138V11.5015H19.1546ZM3.04001 11.1274H3.55695L10.6853 22.2581L7.73952 18.1579L3.47236 11.6591L3.45357 18.1579H3.04001V11.1274ZM24.2542 17.6708C24.1697 17.6708 24.1064 17.6025 24.1064 17.5142C24.1064 17.4259 24.1697 17.3576 24.2542 17.3576C24.3397 17.3576 24.4021 17.4259 24.4021 17.5142C24.4021 17.6025 24.3397 17.6708 24.2542 17.6708ZM24.6606 17.2588H24.8819C24.8849 17.3839 24.9724 17.468 25.1012 17.468C25.245 17.468 25.3265 17.3776 25.3265 17.2084V16.1364H25.5518V17.2094C25.5518 17.5142 25.3828 17.6897 25.1032 17.6897C24.8406 17.6897 24.6606 17.5195 24.6606 17.2588ZM25.8465 17.2452H26.0698C26.0889 17.3891 26.2237 17.4806 26.4178 17.4806C26.5989 17.4806 26.7317 17.3828 26.7317 17.2483C26.7317 17.1327 26.6472 17.0633 26.4551 17.016L26.268 16.9687C26.0054 16.9046 25.8857 16.7722 25.8857 16.5494C25.8857 16.2793 26.097 16.0996 26.4138 16.0996C26.7085 16.0996 26.9238 16.2793 26.9369 16.5347H26.7176C26.6965 16.3949 26.5798 16.3077 26.4108 16.3077C26.2328 16.3077 26.1141 16.397 26.1141 16.5336C26.1141 16.6419 26.1905 16.7039 26.3796 16.7501L26.5396 16.7911C26.8373 16.8637 26.96 16.9898 26.96 17.2178C26.96 17.5079 26.7448 17.6897 26.4007 17.6897C26.0789 17.6897 25.8626 17.5163 25.8465 17.2452Z" fill="black"/>
</svg>
