<svg width="25" height="30" viewBox="0 0 25 30" fill="none" xmlns="http://www.w3.org/2000/svg">
<path d="M24.6109 22.7922L14.3226 0.943525C14.1947 0.67469 13.9966 0.445417 13.7491 0.279967C13.5016 0.114517 13.214 0.0190455 12.9168 0.0036541C12.6189 -0.0163062 12.3213 0.0457826 12.0562 0.183168C11.7912 0.320554 11.5689 0.527977 11.4136 0.78288L0.254818 18.8563C0.085144 19.1292 -0.00321845 19.4448 8.9592e-05 19.7662C0.00339763 20.0875 0.0982391 20.4012 0.273496 20.6706L5.72904 29.119C5.93544 29.4362 6.23883 29.6781 6.59397 29.8087C6.94911 29.9393 7.33696 29.9516 7.69966 29.8438L23.5318 25.1607C23.7702 25.091 23.9909 24.9709 24.1788 24.8086C24.3668 24.6463 24.5178 24.4455 24.6215 24.2198C24.7237 23.9953 24.7758 23.7513 24.7742 23.5046C24.7725 23.2579 24.717 23.0145 24.6117 22.7915L24.6109 22.7922ZM22.3075 23.7293L8.87304 27.7019C8.46321 27.8238 8.06982 27.4686 8.15508 27.0549L12.9549 4.07262C13.0446 3.64265 13.6384 3.57453 13.8261 3.97246L22.7114 22.8408C22.7506 22.9249 22.7712 23.0165 22.7717 23.1093C22.7721 23.2021 22.7525 23.2939 22.714 23.3783C22.6756 23.4628 22.6192 23.5379 22.5489 23.5984C22.4787 23.659 22.3961 23.7036 22.3069 23.7292L22.3075 23.7293Z" fill="black"/>
</svg>
