<svg width="30" height="27" viewBox="0 0 30 27" fill="none" xmlns="http://www.w3.org/2000/svg">
<path d="M24.6574 8.64921C24.3451 8.54257 24.0246 8.44355 23.6959 8.34511C23.7533 8.12304 23.8025 7.90155 23.8436 7.68769C24.5748 4.1369 24.0984 1.27694 22.4625 0.340029C20.901 -0.564073 18.3363 0.381044 15.7559 2.62519C15.5092 2.83905 15.2543 3.06874 15.0082 3.30722C14.8436 3.15077 14.6795 2.99491 14.5148 2.84667C11.8025 0.438467 9.09023 -0.572276 7.4625 0.372842C5.90098 1.27694 5.43223 3.96464 6.08965 7.32616C6.15527 7.65487 6.2291 7.98358 6.31172 8.3205C5.92559 8.42714 5.55527 8.54257 5.20195 8.66562C2.03027 9.77538 0 11.5092 0 13.3092C0 15.1666 2.17793 17.0322 5.48203 18.1666C5.74512 18.2568 6.01641 18.3394 6.2959 18.4215C6.20566 18.783 6.12305 19.1445 6.05742 19.4902C5.43281 22.7943 5.91797 25.4164 7.47949 26.3205C9.09023 27.2492 11.7943 26.2959 14.4246 23.9943C14.6303 23.8133 14.8436 23.6164 15.0492 23.4189C15.3205 23.682 15.5918 23.9287 15.8631 24.1584C18.4107 26.3527 20.9344 27.2404 22.4877 26.3363C24.0984 25.4076 24.6164 22.5887 23.9426 19.1527C23.8934 18.8896 23.8277 18.6266 23.7615 18.3471C23.9508 18.2896 24.1395 18.2322 24.3205 18.1742C27.7559 17.0316 30 15.1906 30 13.3086C29.9918 11.5092 27.8959 9.76718 24.6574 8.64921ZM23.9098 16.9672C23.7451 17.0246 23.5811 17.0738 23.4082 17.1236C23.0303 15.9236 22.5123 14.6416 21.8877 13.3262C22.4877 12.0359 22.9811 10.7785 23.3508 9.57851C23.6549 9.66874 23.959 9.75956 24.2467 9.858C27.0246 10.8113 28.718 12.2252 28.718 13.3185C28.7098 14.4764 26.8852 15.9805 23.9098 16.9672ZM22.677 19.4082C22.9811 20.9287 23.0221 22.2934 22.8246 23.3697C22.6436 24.3312 22.2902 24.9723 21.8385 25.2353C20.8934 25.7861 18.8713 25.0707 16.6934 23.1969C16.4467 22.983 16.1918 22.7533 15.9369 22.5066C16.7836 21.5861 17.6303 20.5092 18.4518 19.3174C19.8984 19.1861 21.2707 18.9805 22.5123 18.6928C22.5779 18.9312 22.6354 19.1697 22.677 19.4082ZM10.2164 25.1369C9.2959 25.4656 8.55586 25.4738 8.1123 25.2189C7.16719 24.6764 6.77285 22.5641 7.30664 19.7369C7.36406 19.4164 7.43789 19.0795 7.52871 18.7426C8.76152 19.0139 10.118 19.2113 11.5723 19.3262C12.4025 20.4933 13.2738 21.5697 14.1451 22.5072C13.9559 22.6883 13.7672 22.8687 13.5697 23.0334C12.4107 24.0517 11.2436 24.7754 10.2164 25.1369ZM5.89336 16.959C4.43027 16.4574 3.22207 15.8082 2.3918 15.1016C1.64414 14.4605 1.27383 13.8359 1.27383 13.318C1.27383 12.2246 2.90098 10.8359 5.62148 9.88261C5.9502 9.76776 6.29531 9.66054 6.65684 9.5539C7.03477 10.7785 7.52812 12.0523 8.11992 13.3432C7.51992 14.6498 7.01836 15.9488 6.64043 17.1898C6.37793 17.1148 6.13125 17.041 5.89336 16.959ZM7.33945 7.08769C6.77227 4.20253 7.1502 2.0328 8.0959 1.49022C9.09844 0.906631 11.318 1.7369 13.6605 3.8164C13.8082 3.94765 13.9564 4.08769 14.1129 4.23534C13.2416 5.17226 12.3785 6.24101 11.5564 7.39999C10.1426 7.53124 8.79492 7.7369 7.55391 8.0246C7.47129 7.69589 7.40566 7.38358 7.33945 7.08769ZM20.2852 10.2764C19.9893 9.76659 19.6852 9.26562 19.3729 8.77226C20.3262 8.8953 21.2467 9.05175 22.1098 9.24921C21.8549 10.0795 21.5262 10.9426 21.1482 11.8303C20.877 11.3287 20.5893 10.8025 20.2852 10.2764ZM15.0082 5.13944C15.6 5.78046 16.1918 6.49589 16.7754 7.26815C16.1918 7.24354 15.5918 7.22714 14.9918 7.22714C14.4 7.22714 13.8082 7.24354 13.2246 7.26815C13.8082 6.50409 14.4082 5.78866 15.0082 5.13944ZM9.69844 10.2928C9.40254 10.8107 9.12305 11.3281 8.85176 11.8461C8.48203 10.9584 8.16152 10.0871 7.89844 9.24862C8.75332 9.05937 9.66562 8.90351 10.6189 8.77987C10.2984 9.26562 9.99434 9.77538 9.69844 10.2928ZM10.6436 17.9451C9.65742 17.8385 8.73691 17.6902 7.88203 17.5016C8.14512 16.6467 8.47383 15.759 8.85176 14.8549C9.12305 15.3728 9.40254 15.8902 9.69844 16.4082C10.0025 16.9338 10.3148 17.4435 10.6436 17.9451ZM15.041 21.5861C14.4328 20.9287 13.8246 20.2051 13.2328 19.4246C13.8082 19.4492 14.3918 19.4574 14.9918 19.4574C15.6 19.4574 16.2082 19.441 16.8 19.4164C16.2164 20.2133 15.6246 20.9369 15.041 21.5861ZM21.1564 14.8051C21.559 15.7174 21.8959 16.6051 22.1672 17.4435C21.2959 17.641 20.359 17.8051 19.3729 17.9205C19.6852 17.4271 19.9893 16.918 20.2934 16.3918C20.5975 15.8656 20.8852 15.3394 21.1564 14.8051ZM19.1754 15.759C18.7066 16.5728 18.2221 17.3451 17.7369 18.0851C16.8492 18.1508 15.9287 18.1836 14.9918 18.1836C14.0549 18.1836 13.1508 18.1508 12.2795 18.1016C11.7697 17.3621 11.277 16.581 10.8164 15.7754C10.3477 14.9697 9.92051 14.1646 9.53438 13.359C9.92051 12.5533 10.3482 11.74 10.8082 10.9426C11.2687 10.1369 11.7615 9.36464 12.2631 8.6246C13.159 8.55897 14.0713 8.52616 14.9918 8.52616C15.9205 8.52616 16.8328 8.55897 17.7287 8.6328C18.2221 9.36405 18.7066 10.1369 19.1754 10.9426C19.6441 11.7564 20.0795 12.5615 20.4656 13.3508C20.0795 14.1312 19.6436 14.9451 19.1754 15.759ZM21.8221 1.44921C22.8246 2.0246 23.2195 4.36718 22.5867 7.4328C22.5457 7.63026 22.5047 7.82714 22.4555 8.0328C21.2145 7.74511 19.858 7.53124 18.4447 7.39999C17.6227 6.2246 16.7678 5.15644 15.9053 4.23534C16.1355 4.01327 16.3658 3.79999 16.5955 3.60253C18.8057 1.66308 20.877 0.90663 21.8221 1.44921ZM14.9918 10.6379C16.4713 10.6379 17.6713 11.8379 17.6713 13.3174C17.6713 14.7969 16.4713 15.9969 14.9918 15.9969C13.5123 15.9969 12.3123 14.7969 12.3123 13.3174C12.3123 11.8379 13.5123 10.6379 14.9918 10.6379Z" fill="#00D8FF"/>
</svg>
