<svg width="30" height="23" viewBox="0 0 30 23" fill="none" xmlns="http://www.w3.org/2000/svg">
<path d="M25.8254 12.9109C24.7763 12.917 23.8683 13.1687 23.1066 13.5437C22.8254 12.9868 22.5441 12.5007 22.4972 12.1375C22.4443 11.7156 22.3801 11.4578 22.4443 10.9539C22.5085 10.45 22.8019 9.73512 22.8019 9.67653C22.7963 9.62356 22.7372 9.36574 22.134 9.36012C21.5307 9.3545 21.009 9.47731 20.9504 9.63574C20.8457 9.92847 20.7614 10.2281 20.6982 10.5325C20.5927 11.0832 19.4911 13.0347 18.864 14.0603C18.6586 13.6618 18.4829 13.3103 18.4477 13.029C18.3947 12.6072 18.3305 12.3493 18.3947 11.8454C18.459 11.3415 18.7524 10.6267 18.7524 10.5681C18.7468 10.5151 18.6877 10.2573 18.0844 10.2517C17.4811 10.2461 16.9594 10.3689 16.9008 10.5273C16.8422 10.6857 16.7775 11.0607 16.6486 11.424C16.5254 11.7873 15.0605 15.0456 14.6799 15.895C14.4863 16.3286 14.3166 16.6745 14.1933 16.9089C14.07 17.1432 14.1877 16.9267 14.176 16.9501L14.0119 17.2609V17.2665C13.9299 17.4132 13.8418 17.5539 13.801 17.5539C13.7719 17.5539 13.7129 17.1611 13.8127 16.622C14.0297 15.4909 14.5571 13.727 14.551 13.6628C14.551 13.6337 14.6508 13.3229 14.2111 13.1645C13.7832 13.0061 13.6308 13.27 13.5957 13.27C13.5605 13.27 13.531 13.3637 13.531 13.3637C13.531 13.3637 14.0058 11.3771 12.6226 11.3771C11.7554 11.3771 10.5601 12.3207 9.96802 13.1818L6.97927 14.8168L6.91458 14.7465C5.23974 12.9578 2.13989 11.6922 2.2688 9.28981C2.31567 8.41652 2.62036 6.11356 8.22193 3.32449C12.8101 1.03934 16.4846 1.66606 17.1235 3.06059C18.0319 5.05278 15.1604 8.7559 10.3904 9.29028C8.57396 9.49559 7.61864 8.792 7.37817 8.52856C7.12599 8.25293 7.09083 8.24121 6.99708 8.29418C6.84474 8.37621 6.93849 8.62231 6.99708 8.76903C7.13771 9.1384 7.72364 9.79465 8.71974 10.1228C9.59302 10.4101 11.7258 10.5681 14.3044 9.57199C17.1933 8.45262 19.4494 5.34715 18.7871 2.75168C18.113 0.108869 13.7302 -0.758318 9.58692 0.712619C7.12036 1.59059 4.45317 2.96121 2.5313 4.76028C0.241456 6.89309 -0.121825 8.75684 0.0300497 9.53028C0.563487 12.2903 4.36599 14.0893 5.88942 15.4197L5.67849 15.5368C4.91677 15.9118 2.01614 17.4297 1.28958 19.0351C0.469268 20.8515 1.41849 22.1584 2.0513 22.3342C4.00833 22.8793 6.01224 21.9006 7.09646 20.289C8.17458 18.6775 8.04567 16.5859 7.54786 15.6306L7.53005 15.5954L8.12771 15.2439C8.51443 15.0151 8.89552 14.8042 9.22927 14.6228C9.04177 15.1328 8.90677 15.7361 8.83646 16.615C8.75443 17.6462 9.1763 18.9822 9.73318 19.51C9.97927 19.7387 10.2722 19.7443 10.4541 19.7443C11.0986 19.7443 11.3916 19.2109 11.7141 18.5725C12.1125 17.7929 12.4641 16.8906 12.4641 16.8906C12.4641 16.8906 12.0244 19.3342 13.2258 19.3342C13.6655 19.3342 14.1047 18.7656 14.304 18.4726V18.4782C14.304 18.4782 14.3157 18.4604 14.3391 18.4197C14.386 18.3493 14.4094 18.3081 14.4094 18.3081V18.2964C14.5852 17.9917 14.978 17.2942 15.564 16.1401C16.32 14.6518 17.0466 12.7886 17.0466 12.7886C17.0466 12.7886 17.1169 13.2456 17.334 13.9956C17.4629 14.4409 17.7441 14.9275 17.9611 15.4018L17.6799 15.7886L17.6855 15.7947C17.5355 15.9934 17.3811 16.1888 17.2224 16.3806C16.6247 17.0954 15.9099 17.9101 15.8161 18.1445C15.7046 18.4201 15.728 18.625 15.945 18.789C16.1035 18.9062 16.3847 18.9297 16.6833 18.9062C17.2224 18.8711 17.5974 18.7361 17.7849 18.654C18.1232 18.5334 18.4427 18.3657 18.7341 18.1557C19.32 17.7222 19.6777 17.1067 19.6425 16.2864C19.6247 15.835 19.4785 15.3897 19.2966 14.9678L19.4551 14.7334C20.3808 13.3797 21.0957 11.8914 21.0957 11.8914C21.0957 11.8914 21.166 12.3484 21.383 13.0984C21.4946 13.4795 21.7172 13.8953 21.9165 14.3054C21.0493 15.0147 20.5041 15.835 20.3166 16.374C19.9707 17.3701 20.2402 17.8215 20.7502 17.927C20.979 17.9739 21.3071 17.8684 21.5532 17.7629C21.8579 17.6631 22.2272 17.4934 22.5671 17.2412C23.153 16.8076 23.7155 16.2039 23.6865 15.3897C23.6686 15.0147 23.5693 14.6453 23.4343 14.2937C24.1726 13.989 25.1279 13.8132 26.3405 13.9595C28.9482 14.2642 29.4638 15.8931 29.364 16.5728C29.2641 17.2525 28.7194 17.6275 28.5375 17.7447C28.3557 17.8562 28.2971 17.897 28.3149 17.979C28.3383 18.1023 28.4204 18.0962 28.5788 18.0728C28.7958 18.0376 29.9499 17.5159 29.9968 16.262C30.0671 14.6504 28.5375 12.8926 25.8249 12.9104L25.8254 12.9109ZM5.71411 19.6914C4.85255 20.635 3.63989 20.9922 3.12427 20.6875C2.56739 20.365 2.78442 18.9765 3.84521 17.9743C4.48974 17.365 5.32786 16.8025 5.87864 16.4565L6.41208 16.134C6.44724 16.1106 6.47067 16.0989 6.47067 16.0989C6.51192 16.0754 6.5588 16.0459 6.60567 16.0168C6.99849 17.4465 6.62349 18.7004 5.71505 19.6909L5.71411 19.6914ZM12.0141 15.4079C11.715 16.1406 11.0822 18.0212 10.7016 17.9157C10.3735 17.8276 10.1743 16.404 10.6369 14.9973C10.8713 14.2881 11.3696 13.4443 11.6625 13.1162C12.1374 12.5889 12.653 12.4131 12.7819 12.6297C12.9343 12.9109 12.2016 14.9504 12.0141 15.4079ZM17.2116 17.8923C17.0827 17.957 16.9655 18.0039 16.9126 17.9687C16.8713 17.9453 16.9655 17.8572 16.9655 17.8572C16.9655 17.8572 17.6161 17.1597 17.874 16.8376L18.384 16.187V16.2573C18.384 17.1011 17.5754 17.6636 17.2121 17.8923H17.2116ZM21.2194 16.9782C21.1257 16.9079 21.1374 16.6909 21.4538 16.0112C21.5771 15.7417 21.8583 15.2903 22.3444 14.8628C22.403 15.0386 22.4382 15.2087 22.4326 15.3667C22.4265 16.4214 21.6765 16.8142 21.2194 16.9782Z" fill="#CF649A"/>
</svg>
