<svg width="30" height="18" viewBox="0 0 30 18" fill="none" xmlns="http://www.w3.org/2000/svg">
<path d="M15 0C11 0 8.49996 2.00004 7.5 6C9 3.99996 10.75 3.24996 12.75 3.75C13.8911 4.03523 14.7067 4.86316 15.6095 5.77945C17.0802 7.27231 18.7822 9 22.5 9C26.5 9 29 6.99996 30 3C28.5 5.00004 26.75 5.75004 24.75 5.25C23.6089 4.96477 22.7933 4.13684 21.8905 3.22055C20.4198 1.7277 18.7178 0 15 0ZM7.5 9C3.50004 9 0.999961 11 0 15C1.5 13 3.24996 12.25 5.25 12.75C6.39105 13.0352 7.20668 13.8632 8.10949 14.7795C9.58019 16.2723 11.2822 18 15 18C19 18 21.5 16 22.5 12C21 14 19.25 14.75 17.25 14.25C16.1089 13.9648 15.2933 13.1368 14.3905 12.2205C12.9198 10.7277 11.2178 9 7.5 9Z" fill="url(#paint0_linear_14_136)"/>
<defs>
<linearGradient id="paint0_linear_14_136" x1="-213.35" y1="884.736" x2="-124.517" y2="1881.56" gradientUnits="userSpaceOnUse">
<stop stop-color="#2298BD"/>
<stop offset="1" stop-color="#0ED7B5"/>
</linearGradient>
</defs>
</svg>
